<?xml version="1.0" standalone="no"?><!DOCTYPE svg PUBLIC "-//W3C//DTD SVG 1.1//EN" "http://www.w3.org/Graphics/SVG/1.1/DTD/svg11.dtd"><svg t="1500266066268" class="icon" style="" viewBox="0 0 1024 1024" version="1.1" xmlns="http://www.w3.org/2000/svg" p-id="2587" xmlns:xlink="http://www.w3.org/1999/xlink" width="128" height="128"><defs><style type="text/css"></style></defs><path d="M509.952876 264.35376c9.41851 0 16.884552-7.636934 16.884552-17.055444l0-102.33062c0-9.41851-7.466042-17.055444-16.884552-17.055444s-16.884552 7.636934-16.884552 17.055444l0 102.33062C493.068324 256.717849 500.534366 264.35376 509.952876 264.35376z" p-id="2588"></path><path d="M426.398902 569.8168l-86.825484 0L339.573417 486.070444c0-9.41851-7.466042-17.055444-16.884552-17.055444s-16.884552 7.636934-16.884552 17.055444l0 83.746356-84.066651 0c-9.41851 0-17.055444 7.466042-17.055444 16.884552s7.636934 16.884552 17.055444 16.884552l84.066651 0L305.804313 690.731684c0 9.41851 7.466042 17.055444 16.884552 17.055444s16.884552-7.636934 16.884552-17.055444l0-87.145779 86.825484 0c9.41851 0 17.055444-7.466042 17.055444-16.884552S435.817412 569.8168 426.398902 569.8168z" p-id="2589"></path><path d="M716.335317 490.342748c-56.428174 0-102.33062 45.902446-102.33062 102.33062 0 56.428174 45.902446 102.33062 102.33062 102.33062 56.428174 0 102.33062-45.902446 102.33062-102.33062C818.665936 536.245194 772.76349 490.342748 716.335317 490.342748zM716.335317 660.893098c-37.615713 0-68.220754-30.604018-68.220754-68.220754 0-37.615713 30.604018-68.220754 68.220754-68.220754 37.615713 0 68.220754 30.604018 68.220754 68.220754C784.556071 630.28908 753.951029 660.893098 716.335317 660.893098z" p-id="2590"></path><path d="M699.279872 339.572906 324.068282 339.572906c-141.062759 0-255.82655 114.76379-255.82655 255.82655s114.76379 255.82655 255.82655 255.82655l375.212614 0c141.062759 0 255.82655-114.76379 255.82655-255.82655S840.342632 339.572906 699.279872 339.572906zM699.279872 817.4569 324.068282 817.4569c-122.258485 0-221.716684-99.79896-221.716684-222.057445s99.457176-222.057445 221.716684-222.057445l375.212614 0c122.258485 0 221.716684 99.79896 221.716684 222.057445S821.53938 817.4569 699.279872 817.4569z" p-id="2591"></path></svg>